<!-- svgstack.com --><svg width="400" height="400" viewBox="0 0 400 400" fill="none" xmlns="http://www.w3.org/2000/svg"><path d="M275.793 233.847L275.289 233.749V198.68C275.289 166.907 275.322 163.598 275.643 163.475C275.838 163.4 282.952 163.339 291.453 163.339C304.201 163.339 307.383 163.401 309.613 163.69C313.721 164.224 316.253 164.949 319.418 166.5C322.075 167.801 322.346 167.999 324.706 170.357C326.839 172.488 327.325 173.114 328.114 174.744C328.62 175.789 329.31 177.55 329.647 178.657C330.247 180.622 330.262 180.806 330.269 186.372C330.277 191.877 330.257 192.144 329.69 194.087C327.38 202.001 321.366 206.959 311.873 208.778C309.771 209.181 308.35 209.255 301.161 209.342C296.26 209.4 292.782 209.53 292.649 209.658C292.508 209.794 292.384 214.322 292.313 221.883L292.201 233.892L284.249 233.918C279.875 233.933 276.07 233.901 275.793 233.847ZM305.58 196.556C308.12 196.018 310.874 194.01 311.934 191.922C312.518 190.773 312.988 187.769 312.932 185.551C312.861 182.715 311.442 179.685 309.52 178.266C308.019 177.157 306.639 176.762 303.401 176.513C300.827 176.315 294.019 176.421 293.623 176.665C293.307 176.861 293.383 196.296 293.702 196.614C294.108 197.019 303.609 196.973 305.58 196.556ZM338.403 233.849C338.187 233.793 338.001 233.578 337.988 233.372C337.976 233.166 337.951 217.425 337.932 198.392L337.899 163.786H345.76H353.622L353.769 168.65C353.85 171.325 353.92 177.338 353.926 182.011C353.937 190.495 354.015 192.186 354.401 192.186C354.513 192.186 355.281 191.552 356.108 190.777C359.212 187.867 362.861 185.836 365.631 185.477C369.527 184.972 374.54 185.363 377.005 186.364C382.307 188.518 385.075 192.387 386.282 199.33C386.706 201.771 386.747 203.982 386.676 220.645L386.62 233.786L379.06 233.727L371.5 233.668L371.388 217.679C371.277 201.883 371.27 201.678 370.792 200.645C369.776 198.451 367.407 196.517 364.971 195.893C363.132 195.422 362.115 195.449 360.446 196.011C357.184 197.111 355.005 199.821 354.217 203.758C353.934 205.174 353.85 208.104 353.76 219.748L353.649 234.003L346.222 233.978C342.137 233.963 338.618 233.906 338.403 233.849ZM16.0491 189.559C16.1047 169.102 16.0418 169.878 17.959 166.022C18.7632 164.405 19.2895 163.738 21.4843 161.55C23.6977 159.343 24.3348 158.846 25.9683 158.051C29.6625 156.252 29.8569 156.233 45.4254 156.109L59.1702 156L61.2179 157.39C67.8084 161.866 69.6498 163.169 69.6498 163.36C69.6498 163.478 69.423 163.662 69.1458 163.769C68.8686 163.877 66.9696 165.113 64.926 166.516C62.8823 167.918 60.8158 169.312 60.3338 169.613L59.4574 170.159L46.353 170.271L33.2486 170.383C31.6058 170.346 29.8173 171 29.8885 173.44L29.8269 190.232C29.7837 202.011 29.6919 207.113 29.5195 207.32C29.3257 207.553 27.8673 207.616 22.6368 207.616L16 207.616L16.0491 189.559Z" fill="#204884"/><path d="M169.09 243.733C168.646 243.492 166.043 240.838 163.802 238.622L159.584 234.537C157.978 234.651 156.404 235.039 154.801 235.227C152.621 235.484 148.697 235.887 148.502 235.571C148.366 235.352 148.31 235.354 148.235 235.578C148.158 235.807 147.402 235.811 144.344 235.596C138.423 235.179 134.301 234.085 129.347 231.614C126.117 230.003 124.365 228.723 121.614 225.967C117.703 222.048 115.32 218.162 113.582 212.864C109.807 201.355 110.948 187.989 116.52 178.451C122.872 167.579 133.689 162.015 148.5 162.001C156.247 161.995 162.549 163.29 167.919 165.992C170.963 167.525 173.092 169.08 175.747 171.711C180.142 176.065 183.082 181.266 184.512 188.72C185.633 194.565 185.612 198.199 185.588 199.047C185.563 199.913 185.889 204.351 183.482 212.759C182.293 216.914 179.362 221.943 176.48 225.093C175.506 226.158 174.709 227.124 174.709 227.241C174.709 227.467 177.308 230.04 179.525 232.007C184.012 235.99 184.852 236.931 188.097 239.92C189.001 240.753 191.588 243.207 191.969 243.673C192.01 243.724 187.612 243.652 183.076 243.703C178.539 243.754 173.595 243.709 172.066 243.71C170.849 243.71 169.09 243.733 169.09 243.733ZM152.137 221.721C156.674 220.743 158.015 220.208 159.869 218.639C163.084 215.917 165.04 211.99 166.205 205.636C166.401 204.563 166.705 202.553 166.623 198.062C166.535 193.255 165.668 189.578 165.343 188.625C162.615 180.634 158.14 176.052 151.566 175.395C150.674 175.306 147.879 175.135 145.833 175.39C144.126 175.603 143.232 175.886 141.967 176.3C140.68 176.709 138.246 178.34 137.063 179.584C132.775 184.097 130.797 190.217 130.807 198.949C130.821 210.997 134.547 218.662 141.481 220.906C144.264 221.806 149.783 222.229 152.137 221.721ZM52.564 236.813C51.5737 236.313 45.3263 232.082 44.0299 231.034L43.3877 230.515L45.486 229.088C46.6401 228.303 48.4915 227.062 49.6004 226.329C50.7092 225.597 51.8922 224.808 52.2292 224.577C53.53 223.682 53.7708 223.666 66.5129 223.615C79.8772 223.561 81.3536 223.735 82.5372 222.628C83.6641 221.573 83.412 219.362 83.4464 217.79C83.4734 216.557 83.4705 209.028 83.4464 201.052L83.4026 186.55L83.9327 186.349C84.2242 186.238 87.2786 186.148 90.7203 186.148H96.9779L97.0339 200.851C97.1128 221.552 97.1244 220.877 96.6507 223.046C95.9054 226.457 93.4096 230.892 91.1537 232.815C88.4009 235.161 84.9215 236.85 82.1934 237.165C81.2694 237.271 74.4544 237.352 67.049 237.344L53.5847 237.329L52.564 236.813ZM201.309 233.608C197.445 233.562 196.217 233.481 196.228 233.272C196.236 233.121 196.2 217.335 196.148 198.193L196.053 163.389L203.358 163.22C216.944 162.907 229.936 163.288 234.406 164.132C239.889 165.166 243.277 166.709 245.939 169.383C247.942 171.395 249.1 173.278 249.921 175.861C250.503 177.691 250.847 180.336 250.806 182.682C250.759 185.376 250.492 187.659 249.903 189.377C249.06 191.836 247.863 193.885 246.499 195.205C244.829 196.82 242.441 198.435 239.058 200.01C238.365 200.333 234.518 201.98 234.518 202.097C234.518 202.343 234.935 202.696 236.199 203.522C238.993 205.347 242.483 209.235 245.652 214.055C246.599 215.494 247.933 217.427 248.618 218.349C249.303 219.271 250.889 221.485 252.143 223.269C253.397 225.052 255.463 227.953 256.735 229.714C258.007 231.475 259.17 233.087 259.319 233.295C259.574 233.649 259.015 233.67 250.695 233.625C245.802 233.599 241.469 233.573 241.065 233.567C240.277 233.555 240.547 233.928 233.503 223.119C226.677 212.646 223.961 209.183 221.414 207.706C220.338 207.082 220.183 207.057 217.446 207.057C215.03 207.057 214.538 207.116 214.205 207.449C213.84 207.813 213.812 208.744 213.805 220.642C213.8 228.907 213.718 233.504 213.574 233.613C213.451 233.706 211.787 233.756 209.878 233.725C207.968 233.693 204.112 233.641 201.309 233.608ZM225.059 194.293C227.013 193.856 228.122 193.236 229.763 191.664C232.039 189.482 232.761 187.876 232.743 185.038C232.72 181.523 231.139 178.65 228.563 177.441C226.403 176.428 225.304 176.297 219.489 176.36L214.022 176.42L213.957 184.806C213.922 189.418 213.951 193.515 214.022 193.911L214.151 194.63L216.327 194.693C219.87 194.798 223.557 194.628 225.059 194.293Z" fill="#CE1126"/><path d="M56.346 216.292C67.0165 216.292 75.6667 207.657 75.6667 197.005C75.6667 186.353 67.0165 177.718 56.346 177.718C45.6755 177.718 37.0254 186.353 37.0254 197.005C37.0254 207.657 45.6755 216.292 56.346 216.292Z" fill="#FCD116"/></svg> 